<svg width="25" height="26" viewBox="0 0 25 26" fill="none" xmlns="http://www.w3.org/2000/svg">
<g clip-path="url(#clip0_1_19)">
<path d="M12.5 25.5C14.2246 25.5 15.6235 24.1011 15.6235 22.375H9.37644C9.37644 24.1011 10.7754 25.5 12.5 25.5ZM23.0171 18.1899C22.0737 17.1763 20.3086 15.6514 20.3086 10.6562C20.3086 6.8623 17.6484 3.8252 14.0615 3.08008V2.0625C14.0615 1.19971 13.3623 0.5 12.5 0.5C11.6377 0.5 10.9384 1.19971 10.9384 2.0625V3.08008C7.35154 3.8252 4.69138 6.8623 4.69138 10.6562C4.69138 15.6514 2.92624 17.1763 1.98288 18.1899C1.68991 18.5049 1.56003 18.8813 1.56247 19.25C1.56784 20.0508 2.19626 20.8125 3.12986 20.8125H21.8701C22.8037 20.8125 23.4326 20.0508 23.4375 19.25C23.4399 18.8813 23.31 18.5044 23.0171 18.1899Z" fill="white"/>
</g>
<defs>
<clipPath id="clip0_1_19">
<rect width="25" height="25" fill="white" transform="translate(0 0.5)"/>
</clipPath>
</defs>
</svg>
