<svg width="25" height="26" viewBox="0 0 25 26" fill="none" xmlns="http://www.w3.org/2000/svg">
<g clip-path="url(#clip0_1_27)">
<path d="M23.7988 15.915L21.7187 14.7139C21.9287 13.5811 21.9287 12.4189 21.7187 11.2861L23.7988 10.085C24.0381 9.94824 24.1455 9.66504 24.0674 9.40137C23.5254 7.66309 22.6025 6.09082 21.3965 4.78223C21.2109 4.58203 20.9082 4.5332 20.6738 4.66992L18.5937 5.87109C17.7197 5.11914 16.7139 4.53809 15.625 4.15723V1.75977C15.625 1.48633 15.4346 1.24707 15.166 1.18848C13.374 0.788086 11.5381 0.807617 9.83398 1.18848C9.56542 1.24707 9.37499 1.48633 9.37499 1.75977V4.16211C8.29101 4.54785 7.28515 5.12891 6.40624 5.87598L4.33105 4.6748C4.09179 4.53809 3.79394 4.58203 3.60839 4.78711C2.40234 6.09082 1.47949 7.66309 0.937494 9.40625C0.854486 9.66992 0.96679 9.95312 1.20605 10.0898L3.28613 11.291C3.07617 12.4238 3.07617 13.5859 3.28613 14.7188L1.20605 15.9199C0.96679 16.0566 0.859369 16.3398 0.937494 16.6035C1.47949 18.3418 2.40234 19.9141 3.60839 21.2227C3.79394 21.4229 4.09667 21.4717 4.33105 21.335L6.41113 20.1338C7.28515 20.8857 8.29101 21.4668 9.37988 21.8477V24.25C9.37988 24.5234 9.57031 24.7627 9.83886 24.8213C11.6309 25.2217 13.4668 25.2021 15.1709 24.8213C15.4394 24.7627 15.6299 24.5234 15.6299 24.25V21.8477C16.7139 21.4619 17.7197 20.8809 18.5986 20.1338L20.6787 21.335C20.918 21.4717 21.2158 21.4277 21.4014 21.2227C22.6074 19.9189 23.5303 18.3467 24.0723 16.6035C24.1455 16.335 24.0381 16.0518 23.7988 15.915ZM12.5 16.9062C10.3467 16.9062 8.59374 15.1533 8.59374 13C8.59374 10.8467 10.3467 9.09375 12.5 9.09375C14.6533 9.09375 16.4062 10.8467 16.4062 13C16.4062 15.1533 14.6533 16.9062 12.5 16.9062Z" fill="white"/>
</g>
<defs>
<clipPath id="clip0_1_27">
<rect width="25" height="25" fill="white" transform="translate(0 0.5)"/>
</clipPath>
</defs>
</svg>
