<svg width="25" height="26" viewBox="0 0 25 26" fill="none" xmlns="http://www.w3.org/2000/svg">
<g clip-path="url(#clip0_1_14)">
<path d="M0 20.6389C0 21.7891 0.93316 22.7222 2.08333 22.7222H22.9167C24.0668 22.7222 25 21.7891 25 20.6389V13H0V20.6389ZM8.33333 17.6875C8.33333 17.401 8.56771 17.1667 8.85417 17.1667H14.7569C15.0434 17.1667 15.2778 17.401 15.2778 17.6875V19.4236C15.2778 19.7101 15.0434 19.9444 14.7569 19.9444H8.85417C8.56771 19.9444 8.33333 19.7101 8.33333 19.4236V17.6875ZM2.77778 17.6875C2.77778 17.401 3.01215 17.1667 3.29861 17.1667H6.42361C6.71007 17.1667 6.94444 17.401 6.94444 17.6875V19.4236C6.94444 19.7101 6.71007 19.9444 6.42361 19.9444H3.29861C3.01215 19.9444 2.77778 19.7101 2.77778 19.4236V17.6875ZM25 5.3611V7.44444H0V5.3611C0 4.21093 0.93316 3.27777 2.08333 3.27777H22.9167C24.0668 3.27777 25 4.21093 25 5.3611Z" fill="white"/>
</g>
<defs>
<clipPath id="clip0_1_14">
<rect width="25" height="25" fill="white" transform="translate(0 0.5)"/>
</clipPath>
</defs>
</svg>
