<svg width="25" height="26" viewBox="0 0 25 26" fill="none" xmlns="http://www.w3.org/2000/svg">
<path d="M12.5928 2.0625C6.60645 2.0625 1.5625 6.87207 1.5625 12.8096C1.5625 13 1.56738 23.9375 1.56738 23.9375L12.5928 23.9277C18.584 23.9277 23.4375 18.9326 23.4375 12.9951C23.4375 7.05762 18.584 2.0625 12.5928 2.0625ZM12.5 19.25C11.5527 19.25 10.6494 19.04 9.84375 18.6592L5.88379 19.6406L7.00195 15.9785C6.52344 15.0947 6.25 14.0791 6.25 13C6.25 9.54785 9.04785 6.75 12.5 6.75C15.9521 6.75 18.75 9.54785 18.75 13C18.75 16.4521 15.9521 19.25 12.5 19.25Z" fill="white"/>
</svg>
