<svg width="25" height="26" viewBox="0 0 25 26" fill="none" xmlns="http://www.w3.org/2000/svg">
<g clip-path="url(#clip0_1_10)">
<path d="M12.1688 8.32377L4.16665 14.9145V22.0278C4.16665 22.2119 4.23981 22.3886 4.37004 22.5188C4.50028 22.649 4.67691 22.7222 4.86109 22.7222L9.7248 22.7096C9.90838 22.7087 10.0841 22.6351 10.2136 22.505C10.3431 22.3749 10.4158 22.1988 10.4158 22.0152V17.8611C10.4158 17.6769 10.4889 17.5003 10.6192 17.3701C10.7494 17.2398 10.926 17.1667 11.1102 17.1667H13.888C14.0722 17.1667 14.2488 17.2398 14.379 17.3701C14.5093 17.5003 14.5824 17.6769 14.5824 17.8611V22.0121C14.5822 22.1035 14.5999 22.1941 14.6347 22.2786C14.6695 22.3631 14.7206 22.4399 14.7851 22.5046C14.8496 22.5693 14.9262 22.6207 15.0106 22.6557C15.095 22.6907 15.1855 22.7088 15.2769 22.7088L20.1389 22.7222C20.323 22.7222 20.4997 22.649 20.6299 22.5188C20.7601 22.3886 20.8333 22.2119 20.8333 22.0278V14.9097L12.8329 8.32377C12.7388 8.24796 12.6217 8.20662 12.5008 8.20662C12.38 8.20662 12.2629 8.24796 12.1688 8.32377ZM24.809 12.8034L21.1805 9.81249V3.80077C21.1805 3.66264 21.1257 3.53016 21.028 3.43249C20.9303 3.33481 20.7978 3.27994 20.6597 3.27994H18.2291C18.091 3.27994 17.9585 3.33481 17.8609 3.43249C17.7632 3.53016 17.7083 3.66264 17.7083 3.80077V6.95225L13.8225 3.7552C13.4496 3.44833 12.9816 3.28055 12.4987 3.28055C12.0157 3.28055 11.5478 3.44833 11.1749 3.7552L0.188347 12.8034C0.135607 12.847 0.0919735 12.9005 0.0599388 12.961C0.0279041 13.0214 0.00809631 13.0876 0.00164726 13.1557C-0.00480179 13.2239 0.00223428 13.2926 0.0223534 13.358C0.0424726 13.4234 0.0752806 13.4842 0.118903 13.5369L1.22567 14.8824C1.26918 14.9353 1.32269 14.9791 1.38314 15.0113C1.44359 15.0434 1.5098 15.0634 1.57797 15.07C1.64614 15.0765 1.71494 15.0696 1.78043 15.0496C1.84592 15.0295 1.90681 14.9967 1.95961 14.9531L12.1688 6.54426C12.2629 6.46845 12.38 6.4271 12.5008 6.4271C12.6217 6.4271 12.7388 6.46845 12.8329 6.54426L23.0425 14.9531C23.0952 14.9967 23.156 15.0295 23.2214 15.0497C23.2868 15.0698 23.3555 15.0768 23.4237 15.0704C23.4918 15.0639 23.558 15.0441 23.6184 15.0121C23.6789 14.98 23.7324 14.9364 23.776 14.8837L24.8828 13.5382C24.9264 13.4852 24.959 13.4241 24.9789 13.3584C24.9988 13.2927 25.0055 13.2237 24.9986 13.1554C24.9918 13.0872 24.9715 13.0209 24.939 12.9605C24.9064 12.9001 24.8623 12.8467 24.809 12.8034Z" fill="white"/>
</g>
<defs>
<clipPath id="clip0_1_10">
<rect width="25" height="25" fill="white" transform="translate(0 0.5)"/>
</clipPath>
</defs>
</svg>
